<svg width="79" height="25" viewBox="0 0 79 25" fill="none" xmlns="http://www.w3.org/2000/svg">
<g id="layer1" style="mix-blend-mode:luminosity">
<g id="g52">
<path id="path54" d="M78.0108 7.2929C77.3067 5.27776 75.3878 3.83071 73.1339 3.83071H73.0868C71.6216 3.83071 70.3011 4.44111 69.3612 5.421C68.4196 4.44111 67.0992 3.83071 65.6356 3.83071H65.5884C64.3005 3.83071 63.1231 4.30275 62.219 5.08406V4.6869C62.1881 4.29136 61.8629 3.98046 61.4612 3.98046H58.0039C57.5811 3.98046 57.2396 4.32228 57.2396 4.74712V23.5393C57.2396 23.9642 57.5811 24.306 58.0039 24.306H61.4612C61.8466 24.306 62.1637 24.0179 62.2141 23.6451L62.2125 10.1545C62.2125 10.1073 62.2141 10.0633 62.219 10.0194C62.2743 9.41709 62.715 8.92226 63.411 8.86041H63.5394H63.9021H64.0484C64.3395 8.88645 64.5851 8.989 64.7786 9.14363C65.0794 9.38291 65.2469 9.75078 65.2469 10.1545L65.2599 23.5784C65.2599 24.0032 65.6031 24.3467 66.0242 24.3467H69.4815C69.8897 24.3467 70.2214 24.0211 70.2409 23.6158L70.2393 10.1366C70.2377 9.69381 70.4426 9.29339 70.802 9.05574C70.9792 8.94179 71.1923 8.86529 71.4378 8.8425H71.5663H71.9289H72.0753C72.8233 8.90761 73.2754 9.47569 73.2738 10.1366L73.2868 23.5426C73.2868 23.9674 73.6299 24.3092 74.0511 24.3092H77.5083C77.9295 24.3092 78.2726 23.9674 78.2726 23.5426V9.1241C78.2726 8.14095 78.1621 7.72262 78.0108 7.2929Z" fill="#54C1F0"/>
</g>
<g id="g56">
<path id="path58" d="M54.6056 4.02472H52.6281V0.818083C52.6281 0.814827 52.6281 0.811573 52.6281 0.808317C52.6281 0.422544 52.3159 0.110018 51.9305 0.110018C51.885 0.110018 51.8411 0.116529 51.7988 0.124668C49.6067 0.726931 50.0458 3.76591 46.0437 4.02472H45.9543H45.6551C45.5965 4.02472 45.5413 4.03286 45.4876 4.04425C45.1461 4.12076 44.8892 4.42514 44.8892 4.78976V8.25032C44.8892 8.67191 45.2323 9.01536 45.6551 9.01536H47.7415L47.7382 23.6894C47.7382 24.1077 48.0765 24.4463 48.4944 24.4463H51.9126C52.3289 24.4463 52.6672 24.1077 52.6672 23.6894L52.6688 9.01536H54.6056C55.0268 9.01536 55.3699 8.67191 55.3699 8.25032V4.78976C55.3699 4.36817 55.0268 4.02472 54.6056 4.02472Z" fill="#54C1F0"/>
</g>
<g id="g60">
<path id="path62" d="M42.168 4.02342H38.7108C38.2896 4.02342 37.9481 4.36688 37.9481 4.78846V11.944C37.94 12.3867 37.5822 12.7416 37.1383 12.7416H35.691C35.2421 12.7416 34.8795 12.3802 34.8795 11.931L34.8665 4.78846C34.8665 4.36688 34.5234 4.02342 34.1022 4.02342H30.6449C30.2221 4.02342 29.8806 4.36688 29.8806 4.78846V12.6309C29.8806 15.6096 32.0028 17.7338 34.9803 17.7338C34.9803 17.7338 37.2147 17.7338 37.283 17.7469C37.6863 17.7924 38.0001 18.131 38.0001 18.5477C38.0001 18.9595 37.6928 19.2965 37.2944 19.3469C37.2749 19.3502 37.257 19.3551 37.2358 19.3583L32.18 19.3762C31.7572 19.3762 31.4157 19.7197 31.4157 20.1413V23.6002C31.4157 24.0234 31.7572 24.3652 32.18 24.3652H37.8326C40.8118 24.3652 42.9323 22.2427 42.9323 19.2623V4.78846C42.9323 4.36688 42.5908 4.02342 42.168 4.02342Z" fill="#233266"/>
</g>
<g id="g64">
<path id="path66" d="M8.70287 10.3677V11.9824V12.5033C8.70287 12.9509 8.34023 13.3155 7.89303 13.3155L5.69932 13.3171V9.03783H7.89303C8.34023 9.03783 8.70287 9.39919 8.70287 9.84844V10.3677ZM9.00697 4.02603H1.45011C1.03543 4.02603 0.700439 4.36297 0.700439 4.77642V8.16699C0.700439 8.1735 0.702066 8.18001 0.702066 8.18653C0.702066 8.2028 0.700439 8.21908 0.700439 8.23373V19.1086V23.58C0.700439 23.9967 1.01267 24.3369 1.3997 24.3467H1.46474H4.922C5.34318 24.3467 5.68631 24.0049 5.68631 23.5816L5.69932 18.3224H9.00697C11.7747 18.3224 13.7034 16.4001 13.7034 13.6183V8.7367C13.7034 5.9549 11.7747 4.02603 9.00697 4.02603Z" fill="#233266"/>
</g>
<g id="g68">
<path id="path70" d="M23.0483 18.4761V19.0165C23.0483 19.0605 23.0418 19.1028 23.0353 19.1435C23.0272 19.1825 23.0158 19.22 23.0028 19.2558C22.8954 19.5585 22.593 19.7783 22.2336 19.7783H20.7944C20.3456 19.7783 19.9797 19.4365 19.9797 19.0165V18.3638C19.9797 18.3556 19.9781 18.3475 19.9781 18.3394L19.9797 16.6026V16.5993V16.4072V16.0589L19.9813 16.054C19.983 15.6357 20.3456 15.2971 20.7944 15.2971H22.2336C22.684 15.2971 23.0483 15.6373 23.0483 16.0589V18.4761ZM22.4987 4.02994H17.7014C17.277 4.02994 16.9339 4.35223 16.9339 4.74777V6.09391C16.9339 6.10205 16.9355 6.11182 16.9355 6.11996C16.9355 6.12972 16.9339 6.13949 16.9339 6.14925V7.99348C16.9339 8.41181 17.2981 8.75363 17.747 8.75363H22.3149C22.6759 8.8106 22.9621 9.0743 23.0028 9.48611V9.93211C22.9621 10.3244 22.6792 10.6109 22.3344 10.6434H20.0724C17.064 10.6434 14.9207 12.6439 14.9207 15.4534V19.3746V19.4772C14.9207 22.2703 16.7631 24.2578 19.7504 24.2578H26.0193C27.1447 24.2578 28.0569 23.4049 28.0569 22.355V9.22405C28.0569 6.0402 26.4177 4.02994 22.4987 4.02994Z" fill="#233266"/>
</g>
</g>
</svg>
